# xmcd CD database file
#
# Track frame offsets:
#	150
#	20191
#	41916
#	59153
#	67223
#	113019
#	138266
#	166493
#
# Disc length: 2417 seconds
#
# Revision: 0
# Processed by: cddbd v1.5.2PL0 Copyright (c) Steve Scherf et al.
# Submitted via: CDex 1.51
#
DISCID=7d096f08
DTITLE=Lehman, Steve - Travail, Transformation, and Flow
DYEAR=1900
DGENRE=Jazz
TTITLE0=Echoes
TTITLE1=Rudreshm
TTITLE2=As Things Change
TTITLE3=Dub
TTITLE4=Alloy
TTITLE5=Waves
TTITLE6=No Neighborhood
TTITLE7=GZA
EXTD=
EXTT0=
EXTT1=
EXTT2=
EXTT3=
EXTT4=
EXTT5=
EXTT6=
EXTT7=
PLAYORDER=
